# Blender 4.4.0
# www.blender.org
mtllib finish_flag.mtl
o Flag
v 0.000000 3.409115 0.104189
v 1.200000 3.458329 0.174621
v 0.000000 4.590885 -0.104189
v 1.200000 4.640099 -0.033757
v 0.000000 4.118177 -0.020838
v 0.000000 3.881823 0.020838
v 0.000000 3.645469 0.062513
v 0.240000 3.470902 0.021649
v 0.480000 3.499880 0.059568
v 0.720000 3.509667 0.115076
v 0.960000 3.495406 0.160619
v 0.960000 4.677175 -0.047759
v 0.720000 4.691437 -0.093302
v 0.480000 4.681649 -0.148810
v 0.240000 4.652671 -0.186729
v 0.240000 3.707256 -0.020026
v 0.240000 3.943609 -0.061702
v 0.240000 4.179963 -0.103377
vn -0.2286 0.1690 0.9587
vn -0.1739 0.1710 0.9698
vn 0.2821 0.1666 0.9448
vn 0.2820 0.1666 0.9448
vn -0.0306 0.1736 0.9843
vn -0.1740 0.1710 0.9698
vn -0.2285 0.1690 0.9588
vt 0.313530 -0.000000
vt 0.471650 -0.000000
vt 0.629168 0.326348
vt 0.629168 0.794461
vt 0.781829 0.687302
vt 0.781829 0.843340
vt 0.629168 0.638423
vt 0.781829 0.531265
vt 0.629168 0.482386
vt 0.781830 0.375227
vt 0.156012 0.794461
vt 0.000000 0.819781
vt 0.000000 0.039593
vt 0.313530 0.780188
vt 0.156012 0.014273
vt 0.629168 0.014273
vt 0.471650 0.780188
vt 0.781830 0.063152
s 1
usemtl FlagMaterial.002
f 13/1/1 14/2/2 18/3/2
f 8/4/3 7/5/3 1/6/3
f 16/7/4 6/8/4 7/5/4
f 17/9/3 5/10/4 6/8/4
f 11/11/5 2/12/5 4/13/5
f 18/3/2 17/9/2 10/14/6
f 11/11/5 4/13/5 12/15/5
f 14/2/2 15/16/2 18/3/2
f 10/14/6 12/15/2 18/3/2
f 10/14/6 17/9/2 9/17/7
f 8/4/4 16/7/4 7/5/4
f 16/7/4 17/9/3 6/8/4
f 17/9/3 18/3/4 5/10/4
f 17/9/2 16/7/2 9/17/7
f 10/14/6 11/11/2 12/15/2
f 18/3/4 3/18/3 5/10/4
f 12/15/2 13/1/1 18/3/2
f 16/7/2 8/4/2 9/17/7
f 18/3/4 15/16/3 3/18/3
o FlagBase
v 0.000000 -0.000000 -1.000000
v 0.000000 0.300000 -1.000000
v 0.382683 -0.000000 -0.923880
v 0.382683 0.300000 -0.923880
v 0.707107 -0.000000 -0.707107
v 0.707107 0.300000 -0.707107
v 0.923880 -0.000000 -0.382683
v 0.923880 0.300000 -0.382683
v 1.000000 0.000000 0.000000
v 1.000000 0.300000 -0.000000
v 0.923880 0.000000 0.382683
v 0.923880 0.300000 0.382683
v 0.707107 0.000000 0.707107
v 0.707107 0.300000 0.707107
v 0.382683 0.000000 0.923880
v 0.382683 0.300000 0.923880
v 0.000000 0.000000 1.000000
v 0.000000 0.300000 1.000000
v -0.382683 0.000000 0.923880
v -0.382683 0.300000 0.923880
v -0.707107 0.000000 0.707107
v -0.707107 0.300000 0.707107
v -0.923880 0.000000 0.382683
v -0.923880 0.300000 0.382683
v -1.000000 0.000000 0.000000
v -1.000000 0.300000 -0.000000
v -0.923880 -0.000000 -0.382683
v -0.923880 0.300000 -0.382683
v -0.707107 -0.000000 -0.707107
v -0.707107 0.300000 -0.707107
v -0.382683 -0.000000 -0.923880
v -0.382683 0.300000 -0.923880
vn 0.1951 -0.0000 -0.9808
vn 0.5556 -0.0000 -0.8315
vn 0.9808 -0.0000 0.1951
vn 0.8315 -0.0000 0.5556
vn 0.8315 -0.0000 -0.5556
vn -0.1951 -0.0000 0.9808
vn -0.5556 -0.0000 0.8315
vn -0.9808 -0.0000 0.1951
vn -0.9808 -0.0000 -0.1951
vn -0.8315 -0.0000 -0.5556
vn 0.9808 -0.0000 -0.1951
vn -0.5556 -0.0000 -0.8315
vn -0.1951 -0.0000 -0.9808
vn -0.8315 -0.0000 0.5556
vn 0.5556 -0.0000 0.8315
vn 0.1951 -0.0000 0.9808
vn -0.0000 1.0000 -0.0000
vn -0.0000 -1.0000 -0.0000
vt 0.500000 0.261668
vt 0.576469 0.162212
vt 0.576469 0.261668
vt 0.500000 0.162212
vt 0.576469 0.070326
vt 0.576469 0.615221
vt 0.500000 0.615221
vt 0.500000 0.515765
vt 0.576469 0.515765
vt 0.500000 0.423880
vt 0.576469 0.423880
vt 0.500000 -0.000000
vt 0.500000 0.070326
vt 0.652939 0.261668
vt 0.652939 0.162212
vt 0.652939 0.070326
vt 0.576469 0.707107
vt 0.652939 0.615221
vt 0.652939 0.707107
vt 0.652939 0.515765
vt 0.652939 0.423880
vt 0.500000 0.707107
vt 0.652939 0.353553
vt 0.500000 0.353553
vt 0.576469 0.353553
vt 0.576469 -0.000000
vt 0.652939 0.000000
vt 0.391614 0.461940
vt 0.038060 0.391614
vt 0.108386 0.038060
vt 0.461940 0.891613
vt 0.038060 0.891614
vt 0.500000 0.700272
vt -0.000000 0.799728
vt -0.000000 0.700272
vt 0.038060 0.608386
vt 0.108386 0.538060
vt 0.299728 0.500000
vt 0.461940 0.608386
vt 0.391614 0.961940
vt 0.299728 1.000000
vt 0.200272 1.000000
vt 0.108386 0.961940
vt 0.200272 -0.000000
vt 0.299728 -0.000000
vt 0.391614 0.038060
vt 0.461940 0.108386
vt 0.500000 0.200272
vt 0.500000 0.299728
vt 0.461940 0.391614
vt 0.200272 0.500000
vt 0.108386 0.461940
vt -0.000000 0.299728
vt -0.000000 0.200272
vt 0.038060 0.108386
vt 0.500000 0.799728
vt 0.391614 0.538060
s 1
usemtl BaseMaterial.002
f 20/19/8 21/20/8 19/21/8
f 22/22/9 23/23/9 21/20/9
f 27/24/10 28/25/10 30/26/10
f 29/27/11 32/28/11 31/29/11
f 29/27/11 30/26/11 32/28/11
f 26/30/12 23/23/12 24/31/12
f 35/32/13 36/21/13 38/20/13
f 37/33/14 40/23/14 39/34/14
f 42/35/15 43/36/15 41/37/15
f 44/24/16 45/38/16 43/36/16
f 46/27/17 47/39/17 45/38/17
f 28/25/18 25/35/18 26/40/18
f 48/29/19 49/41/19 47/39/19
f 50/42/20 19/21/20 49/43/20
f 20/19/8 22/22/8 21/20/8
f 22/22/9 24/31/9 23/23/9
f 39/34/21 40/23/21 42/44/21
f 37/33/14 38/20/14 40/23/14
f 31/29/22 34/42/22 33/43/22
f 42/35/15 44/24/15 43/36/15
f 44/24/16 46/27/16 45/38/16
f 46/27/17 48/29/17 47/39/17
f 33/41/23 34/43/23 36/21/23
f 39/34/21 42/44/21 41/45/21
f 27/24/10 30/26/10 29/27/10
f 30/46/24 22/47/24 46/48/24
f 31/29/22 32/28/22 34/42/22
f 39/49/25 49/50/25 35/51/25
f 35/32/13 38/20/13 37/33/13
f 33/41/23 36/21/23 35/32/23
f 48/29/19 50/43/19 49/41/19
f 50/42/20 20/19/20 19/21/20
f 49/50/25 19/52/25 21/53/25
f 21/53/25 23/54/25 25/55/25
f 25/55/25 29/56/25 33/57/25
f 41/58/25 43/59/25 45/60/25
f 45/60/25 47/61/25 49/50/25
f 49/50/25 21/53/25 25/55/25
f 41/58/25 45/60/25 49/50/25
f 26/30/12 25/44/12 23/23/12
f 28/25/18 27/24/18 25/35/18
f 46/48/24 44/62/24 42/63/24
f 42/63/24 40/64/24 38/65/24
f 38/65/24 36/66/24 34/67/24
f 34/67/24 32/68/24 30/46/24
f 30/46/24 28/56/24 26/69/24
f 26/69/24 24/70/24 22/47/24
f 22/47/24 20/71/24 50/72/24
f 50/72/24 48/73/24 46/48/24
f 46/48/24 42/63/24 38/65/24
f 38/65/24 34/67/24 30/46/24
f 30/46/24 26/69/24 22/47/24
f 22/47/24 50/72/24 46/48/24
f 46/48/24 38/65/24 30/46/24
f 35/51/25 37/74/25 39/49/25
f 39/49/25 41/58/25 49/50/25
f 49/50/25 33/57/25 35/51/25
f 33/57/25 49/50/25 25/55/25
f 25/55/25 27/69/25 29/56/25
f 29/56/25 31/75/25 33/57/25
o FlagPole
v 0.000000 0.150000 -0.100000
v 0.000000 4.150000 -0.100000
v 0.050000 0.150000 -0.086603
v 0.050000 4.150000 -0.086603
v 0.086603 0.150000 -0.050000
v 0.086603 4.150000 -0.050000
v 0.100000 0.150000 -0.000000
v 0.100000 4.150000 -0.000000
v 0.086603 0.150000 0.050000
v 0.086603 4.150000 0.050000
v 0.050000 0.150000 0.086603
v 0.050000 4.150000 0.086603
v 0.000000 0.150000 0.100000
v 0.000000 4.150000 0.100000
v -0.050000 0.150000 0.086603
v -0.050000 4.150000 0.086603
v -0.086603 0.150000 0.050000
v -0.086603 4.150000 0.050000
v -0.100000 0.150000 -0.000000
v -0.100000 4.150000 -0.000000
v -0.086603 0.150000 -0.050000
v -0.086603 4.150000 -0.050000
v -0.050000 0.150000 -0.086603
v -0.050000 4.150000 -0.086603
vn 0.2588 -0.0000 -0.9659
vn 0.7071 -0.0000 -0.7071
vn 0.9659 -0.0000 -0.2588
vn 0.9659 -0.0000 0.2588
vn 0.7071 -0.0000 0.7071
vn 0.2588 -0.0000 0.9659
vn -0.2588 -0.0000 0.9659
vn -0.7071 -0.0000 0.7071
vn -0.9659 -0.0000 0.2588
vn -0.9659 -0.0000 -0.2588
vn -0.7071 -0.0000 -0.7071
vn -0.2588 -0.0000 -0.9659
vn -0.0000 -1.0000 -0.0000
vn -0.0000 1.0000 -0.0000
vt 0.011207 0.000000
vt 0.024148 1.000000
vt 0.011207 1.000000
vt 0.024148 0.000000
vt 0.035355 1.000000
vt 0.035355 0.000000
vt 0.046563 1.000000
vt 0.046563 0.000000
vt 0.059503 1.000000
vt 0.059503 0.000000
vt 0.070711 1.000000
vt 0.070711 0.000000
vt 0.081918 1.000000
vt 0.081918 0.000000
vt 0.094859 1.000000
vt 0.094859 0.000000
vt 0.106066 1.000000
vt 0.106066 0.000000
vt 0.117273 1.000000
vt 0.117273 0.000000
vt 0.130214 1.000000
vt 0.130214 0.000000
vt 0.141421 1.000000
vt 0.000000 0.000000
vt 0.000000 1.000000
vt 0.159099 0.443974
vt 0.189718 0.474593
vt 0.147892 0.485800
vt 0.147892 0.437504
vt 0.141421 0.426296
vt 0.141421 0.413355
vt 0.147892 0.402148
vt 0.183247 0.402148
vt 0.172040 0.443974
vt 0.141421 0.000000
vt 0.141421 0.474593
vt 0.141421 0.461652
vt 0.147892 0.450445
vt 0.183247 0.450445
vt 0.189718 0.461652
vt 0.183247 0.485800
vt 0.172040 0.492270
vt 0.159099 0.492270
vt 0.159099 0.395678
vt 0.172040 0.395678
vt 0.189718 0.413355
vt 0.189718 0.426296
vt 0.183247 0.437504
s 1
usemtl PoleMaterial.013
f 52/76/26 53/77/26 51/78/26
f 54/79/27 55/80/27 53/77/27
f 56/81/28 57/82/28 55/80/28
f 58/83/29 59/84/29 57/82/29
f 60/85/30 61/86/30 59/84/30
f 62/87/31 63/88/31 61/86/31
f 64/89/32 65/90/32 63/88/32
f 66/91/33 67/92/33 65/90/33
f 68/93/34 69/94/34 67/92/34
f 70/95/35 71/96/35 69/94/35
f 72/97/36 73/98/36 71/96/36
f 74/99/37 51/78/37 73/100/37
f 57/101/38 65/102/38 73/103/38
f 52/76/26 54/79/26 53/77/26
f 54/79/27 56/81/27 55/80/27
f 56/81/28 58/83/28 57/82/28
f 58/83/29 60/85/29 59/84/29
f 60/85/30 62/87/30 61/86/30
f 62/87/31 64/89/31 63/88/31
f 64/89/32 66/91/32 65/90/32
f 66/91/33 68/93/33 67/92/33
f 68/93/34 70/95/34 69/94/34
f 70/95/35 72/97/35 71/96/35
f 56/101/39 54/104/39 52/105/39
f 52/105/39 74/106/39 72/107/39
f 66/108/39 58/109/39 52/105/39
f 72/97/36 74/110/36 73/98/36
f 74/99/37 52/76/37 51/78/37
f 73/103/38 51/111/38 53/112/38
f 53/112/38 55/113/38 57/101/38
f 57/101/38 59/109/38 61/114/38
f 61/114/38 63/115/38 65/102/38
f 65/102/38 67/116/38 69/117/38
f 69/117/38 71/118/38 73/103/38
f 73/103/38 53/112/38 57/101/38
f 57/101/38 61/114/38 65/102/38
f 65/102/38 69/117/38 73/103/38
f 52/105/39 72/107/39 70/119/39
f 70/119/39 68/120/39 66/108/39
f 66/108/39 64/121/39 62/122/39
f 62/122/39 60/123/39 58/109/39
f 58/109/39 56/101/39 52/105/39
f 52/105/39 70/119/39 66/108/39
f 66/108/39 62/122/39 58/109/39
