# Blender 4.4.0
# www.blender.org
mtllib vase2.mtl
o Cube
v 0.607131 1.000000 -0.607131
v 0.406382 0.446696 -0.406382
v 0.607131 1.000000 0.607131
v 0.406382 0.446696 0.406382
v -0.607131 1.000000 -0.607131
v -0.406382 0.446696 -0.406382
v -0.607131 1.000000 0.607131
v -0.406382 0.446696 0.406382
v 1.000000 1.000000 1.000000
v -1.000000 1.000000 1.000000
v 1.000000 1.000000 -1.000000
v -1.000000 1.000000 -1.000000
v 1.000000 1.000000 1.000000
v -1.000000 1.000000 1.000000
v 1.000000 1.000000 -1.000000
v -1.000000 1.000000 -1.000000
v -0.607131 1.267396 0.607131
v -0.373648 1.500879 0.373648
v 0.373648 1.500879 0.373648
v 0.607131 1.267396 0.607131
v 0.607131 1.267397 0.607131
v 0.203908 1.500880 0.203908
v -0.203908 1.500880 0.203908
v -0.607131 1.267397 0.607131
v 0.607131 1.267397 -0.607131
v 0.203908 1.500880 -0.203908
v -0.203908 1.500880 -0.203908
v -0.607131 1.267397 -0.607131
v 0.607131 1.267396 -0.607131
v 0.373648 1.500879 -0.373648
v -0.373648 1.500879 -0.373648
v -0.607131 1.267396 -0.607131
v 0.373648 1.500880 0.373648
v -0.373648 1.500880 0.373648
v 0.373648 1.500880 -0.373648
v -0.373648 1.500880 -0.373648
v 0.373648 1.500880 0.373648
v -0.373648 1.500880 0.373648
v 0.373648 1.500880 -0.373648
v -0.373648 1.500880 -0.373648
v 0.049310 1.580910 0.049310
v -0.049310 1.580910 0.049310
v 0.049310 1.580910 -0.049310
v -0.049310 1.580910 -0.049310
vn -1.0000 -0.0000 -0.0000
vn -0.0000 -0.7315 0.6818
vn -0.6818 -0.7315 -0.0000
vn -0.0000 -1.0000 -0.0000
vn 0.6818 -0.7315 -0.0000
vn -0.0000 -0.7315 -0.6818
vn -0.0000 1.0000 -0.0000
vn 1.0000 -0.0000 -0.0000
vn -0.0000 -0.0000 -1.0000
vn -0.4597 0.8881 -0.0000
vn -0.0000 0.7071 0.7071
vn -0.0000 -0.0000 1.0000
vn 0.7071 0.7071 -0.0000
vn -0.7071 0.7071 -0.0000
vn -0.0000 0.7071 -0.7071
vn -0.0000 0.8881 0.4597
vn -0.0000 0.8881 -0.4597
vn 0.4597 0.8881 -0.0000
vt 0.542669 0.776176
vt 0.353524 0.563253
vt 0.384043 0.543613
vt 0.586096 0.732786
vt 0.047354 0.393783
vt 0.253176 0.399158
vt 0.277987 0.587131
vt 0.000097 0.657320
vt 0.493070 0.999903
vt 0.020444 0.999903
vt 0.778201 0.172042
vt 0.606257 0.172042
vt 0.606257 0.000097
vt 0.778201 0.000097
vt 0.146280 0.205405
vt 0.292196 0.237195
vt 0.221128 0.043567
vt 0.437379 0.000097
vt 0.253472 0.399165
vt 0.278299 0.587025
vt 0.292461 0.237304
vt 0.493723 0.999562
vt 0.437786 0.000346
vt 0.307374 0.404874
vt 0.329479 0.255637
vt 0.452326 0.086042
vt 0.362731 0.270844
vt 0.335984 0.403492
vt 0.494091 0.117068
vt 0.591570 0.500464
vt 0.469942 0.469098
vt 0.514051 0.412006
vt 0.548437 0.411881
vt 0.382691 0.402618
vt 0.435823 0.505410
vt 0.384191 0.543502
vt 0.336147 0.403472
vt 0.402259 0.295772
vt 0.382809 0.402590
vt 0.402134 0.295700
vt 0.435909 0.505312
vt 0.605948 0.600687
vt 0.605868 0.600829
vt 0.586286 0.732584
vt 0.494282 0.117232
vt 0.362895 0.270930
vt 0.510584 0.189859
vt 0.510711 0.189989
vt 0.382977 0.402552
vt 0.436021 0.505197
vt 0.402423 0.295853
vt 0.606063 0.600483
vt 0.510893 0.190175
vt 0.422615 0.396891
vt 0.431428 0.313429
vt 0.508716 0.252015
vt 0.627120 0.172236
vt 0.627120 0.193099
vt 0.606257 0.193099
vt 0.606257 0.172236
vt 0.488338 0.387784
vt 0.509065 0.329763
vt 0.484538 0.351742
s 0
usemtl Material
f 5/1/1 7/2/1 24/3/1 28/4/1
f 4/5/2 9/6/2 10/7/2 8/8/2
f 8/8/3 10/7/3 12/9/3 6/10/3
f 6/11/4 2/12/4 4/13/4 8/14/4
f 2/15/5 11/16/5 9/6/5 4/5/5
f 6/17/6 12/18/6 11/16/6 2/15/6
f 13/19/7 14/20/7 10/7/7 9/6/7
f 15/21/7 13/19/7 9/6/7 11/16/7
f 14/20/7 16/22/7 12/9/7 10/7/7
f 16/23/7 15/21/7 11/16/7 12/18/7
f 3/24/7 7/2/7 14/20/7 13/19/7
f 1/25/7 3/24/7 13/19/7 15/21/7
f 7/2/7 5/1/7 16/22/7 14/20/7
f 5/26/7 1/25/7 15/21/7 16/23/7
f 3/24/8 1/25/8 25/27/8 21/28/8
f 1/25/9 5/26/9 28/29/9 25/27/9
f 27/30/10 23/31/10 42/32/10 44/33/10
f 19/34/11 18/35/11 17/36/11 20/37/11
f 35/38/8 33/39/8 19/34/8 30/40/8
f 34/41/1 36/42/1 31/43/1 18/35/1
f 28/4/8 24/3/8 17/36/8 32/44/8
f 25/27/12 28/29/12 32/45/12 29/46/12
f 7/2/12 3/24/12 21/28/12 24/3/12
f 30/40/13 19/34/13 20/37/13 29/46/13
f 18/35/14 31/43/14 32/44/14 17/36/14
f 31/47/15 30/40/15 29/46/15 32/45/15
f 24/3/9 21/28/9 20/37/9 17/36/9
f 33/39/12 34/41/12 18/35/12 19/34/12
f 36/48/9 35/38/9 30/40/9 31/47/9
f 21/28/1 25/27/1 29/46/1 20/37/1
f 37/49/7 38/50/7 34/41/7 33/39/7
f 39/51/7 37/49/7 33/39/7 35/38/7
f 38/50/7 40/52/7 36/42/7 34/41/7
f 40/53/7 39/51/7 35/38/7 36/48/7
f 22/54/7 23/31/7 38/50/7 37/49/7
f 26/55/7 22/54/7 37/49/7 39/51/7
f 23/31/7 27/30/7 40/52/7 38/50/7
f 27/56/7 26/55/7 39/51/7 40/53/7
f 43/57/7 44/58/7 42/59/7 41/60/7
f 23/31/16 22/54/16 41/61/16 42/32/16
f 26/55/17 27/56/17 44/62/17 43/63/17
f 22/54/18 26/55/18 43/63/18 41/61/18
